<svg width="42" height="50" viewBox="0 0 42 50" fill="none" xmlns="http://www.w3.org/2000/svg">
<rect opacity="0.8" width="41.8192" height="49.3921" rx="4.93164" fill="#76A153"/>
<line x1="6.57494" y1="18.1973" x2="6.57494" y2="40.2937" stroke="#FEFEFE" stroke-width="1.99802"/>
<mask id="path-3-inside-1_10_43" fill="white">
<path d="M28.7336 20.1481C29.0318 20.1481 29.2744 19.9062 29.2656 19.6081C29.223 18.1709 29.0105 16.7543 28.6369 15.4227C28.2166 13.9246 27.6005 12.5633 26.8239 11.4167C26.0472 10.2701 25.1252 9.36053 24.1104 8.73999C23.0957 8.11944 22.0081 7.80005 20.9097 7.80005C19.8114 7.80005 18.7238 8.11944 17.709 8.73999C16.6943 9.36053 15.7723 10.2701 14.9956 11.4167C14.219 12.5633 13.6029 13.9246 13.1826 15.4227C12.8089 16.7543 12.5965 18.1709 12.5539 19.6081C12.5451 19.9062 12.7877 20.1481 13.0859 20.1481C13.3841 20.1481 13.6249 19.9062 13.6351 19.6082C13.6769 18.3805 13.861 17.171 14.1804 16.0329C14.5464 14.7282 15.0829 13.5427 15.7593 12.5442C16.4357 11.5456 17.2386 10.7535 18.1223 10.2131C19.006 9.67268 19.9532 9.39453 20.9097 9.39453C21.8663 9.39453 22.8134 9.67268 23.6971 10.2131C24.5808 10.7535 25.3838 11.5456 26.0602 12.5442C26.7365 13.5427 27.2731 14.7282 27.6391 16.0329C27.9584 17.171 28.1426 18.3805 28.1844 19.6082C28.1945 19.9062 28.4353 20.1481 28.7336 20.1481Z"/>
</mask>
<path d="M28.7336 20.1481C29.0318 20.1481 29.2744 19.9062 29.2656 19.6081C29.223 18.1709 29.0105 16.7543 28.6369 15.4227C28.2166 13.9246 27.6005 12.5633 26.8239 11.4167C26.0472 10.2701 25.1252 9.36053 24.1104 8.73999C23.0957 8.11944 22.0081 7.80005 20.9097 7.80005C19.8114 7.80005 18.7238 8.11944 17.709 8.73999C16.6943 9.36053 15.7723 10.2701 14.9956 11.4167C14.219 12.5633 13.6029 13.9246 13.1826 15.4227C12.8089 16.7543 12.5965 18.1709 12.5539 19.6081C12.5451 19.9062 12.7877 20.1481 13.0859 20.1481C13.3841 20.1481 13.6249 19.9062 13.6351 19.6082C13.6769 18.3805 13.861 17.171 14.1804 16.0329C14.5464 14.7282 15.0829 13.5427 15.7593 12.5442C16.4357 11.5456 17.2386 10.7535 18.1223 10.2131C19.006 9.67268 19.9532 9.39453 20.9097 9.39453C21.8663 9.39453 22.8134 9.67268 23.6971 10.2131C24.5808 10.7535 25.3838 11.5456 26.0602 12.5442C26.7365 13.5427 27.2731 14.7282 27.6391 16.0329C27.9584 17.171 28.1426 18.3805 28.1844 19.6082C28.1945 19.9062 28.4353 20.1481 28.7336 20.1481Z" fill="#FFFAFA" stroke="white" stroke-width="3.99604" mask="url(#path-3-inside-1_10_43)"/>
<line x1="5.57593" y1="39.2959" x2="36.2433" y2="39.2959" stroke="#FFFEFE" stroke-width="1.99802"/>
<line x1="35.2446" y1="40.2949" x2="35.2446" y2="18.1985" stroke="white" stroke-width="1.99802"/>
<line x1="5.57593" y1="17.1983" x2="36.2433" y2="17.1983" stroke="white" stroke-width="1.99802"/>
<line x1="9.75806" y1="15.8994" x2="32.0616" y2="15.8994" stroke="white" stroke-width="1.99802"/>
<line x1="7.06274" y1="37.1948" x2="34.4311" y2="37.1948" stroke="#EAC0D9" stroke-width="2.99703"/>
</svg>
